:SAMPLES-PER-SECOND 30
:FULLY-SPECIFIED
:DEGREES
78
root  12.6422 36.5575 14.4822 175.827 -82.1054 179.108
RightUpLeg  -24.4501 -11.395 11.2052
RightLeg  45.023 -6.22584 -6.97168
RightFoot  -16.053 -0.692903 -14.0672
RightToes  -1.16417e-010 0 -3.6325e-017
Spine  10.696 -3.40209 2.39213
Spine1  2.39191 -3.86901 7.21242
HEad  -15.6221 -15.2338 15.6454
LeftShoulder1  7.443 -12.0335 -41.5563
LeftArm  2.97467 -2.33058 -25.2188
LeftForeArm  39.8542 -37.917 -6.2919
LeftHand  -0.244104 0.0205437 5.32207
RightShoulder  4.27003 7.08512 34.3707
RightArm  -39.3242 -9.74831 20.7907
RightForeArm  -61.6158 61.6589 24.8277
RightHand  -5.80474 15.0912 -32.3553
LeftUpLeg  -6.18984 13.3849 7.65393
LeftLeg  71.6514 0.739352 3.51101
LeftFoot  10.3805 1.08727 -5.8641
LeftToes  4.18335e-011 -7.14095e-012 4.81992e-012
79
root  11.1604 37.0396 14.2221 -179.772 -79.4467 175.136
RightUpLeg  -20.8743 -10.9285 10.1317
RightLeg  42.9183 -4.88252 -5.1535
RightFoot  -17.4257 -0.894219 -14.5495
RightToes  -1.16417e-010 0 -3.6325e-017
Spine  10.1016 -2.44383 2.65834
Spine1  2.46371 -2.48107 5.41079
HEad  -14.7067 -18.6709 17.0713
LeftShoulder1  7.44002 -11.7613 -42.3343
LeftArm  7.32849 4.20221 -24.0892
LeftForeArm  37.9276 -33.2974 -5.21616
LeftHand  -0.244104 0.0205437 5.32207
RightShoulder  4.11328 6.66191 34.5037
RightArm  -38.7803 -11.8364 21.9042
RightForeArm  -64.4188 60.5926 23.7366
RightHand  -5.35362 14.0761 -31.4561
LeftUpLeg  -12.4732 12.4482 5.93252
LeftLeg  76.5459 1.26938 7.42718
LeftFoot  8.20253 0.32632 -2.18291
LeftToes  4.18335e-011 -7.14095e-012 4.81992e-012
80
root  9.7271 37.9961 13.92 -174.633 -76.3312 170.174
RightUpLeg  -15.5382 -10.8482 7.92548
RightLeg  37.3782 -3.24103 -2.98871
RightFoot  -16.2248 -0.768587 -15.5315
RightToes  -1.16417e-010 0 -3.6325e-017
Spine  9.90566 -1.55668 1.69043
Spine1  2.45549 -1.42434 3.79828
HEad  -13.8257 -21.3812 18.1976
LeftShoulder1  7.18276 -11.0582 -42.8704
LeftArm  9.84233 11.1041 -23.6336
LeftForeArm  36.5911 -28.7831 -4.22825
LeftHand  -0.244104 0.0205437 5.32207
RightShoulder  4.02386 6.42606 34.5625
RightArm  -38.2642 -13.2239 23.0739
RightForeArm  -64.2013 58.7777 22.0901
RightHand  -4.82271 12.9852 -30.1077
LeftUpLeg  -16.9678 11.8946 3.64317
LeftLeg  75.8615 2.33763 11.7927
LeftFoot  5.57268 0.0256178 -0.416896
LeftToes  4.18335e-011 -7.14095e-012 4.81992e-012
81
root  8.34454 39.1611 13.6084 -171.166 -73.9524 167.272
RightUpLeg  -9.77351 -13.7061 4.99495
RightLeg  29.5073 2.31549 1.09347
RightFoot  -12.6657 -0.265303 -13.6651
RightToes  -1.16417e-010 0 -3.6325e-017
Spine  9.40393 -0.972056 0.0364647
Spine1  2.50063 -0.984032 3.39622
HEad  -12.6605 -23.601 18.5364
LeftShoulder1  6.86366 -10.3913 -42.9304
LeftArm  9.37924 18.1991 -24.4956
LeftForeArm  35.2494 -24.2398 -3.48293
LeftHand  -0.244104 0.0205437 5.32207
RightShoulder  3.95678 6.24338 34.6323
RightArm  -38.0235 -14.091 23.6822
RightForeArm  -62.9208 56.2292 20.0683
RightHand  -4.34986 12.0481 -28.6932
LeftUpLeg  -20.7033 9.81733 1.1591
LeftLeg  71.1272 4.13108 14.1816
LeftFoot  4.06961 -0.19843 1.29612
LeftToes  4.18335e-011 -7.14095e-012 4.81992e-012
82
root  6.96561 40.2526 13.3121 -168.914 -71.4708 166.533
RightUpLeg  -4.92707 -15.9263 1.37812
RightLeg  21.6194 9.94186 5.45285
RightFoot  -8.8365 0.0299416 -4.50646
RightToes  -1.16417e-010 0 -3.6325e-017
Spine  8.03192 -0.237741 -1.25235
Spine1  2.25736 -0.409863 2.92887
HEad  -10.8711 -25.4645 17.804
LeftShoulder1  6.68776 -10.1047 -42.6965
LeftArm  5.18865 25.6272 -25.9103
LeftForeArm  34.4114 -20.6362 -3.61548
LeftHand  -0.244104 0.0205437 5.32207
RightShoulder  3.82571 5.87864 34.8095
RightArm  -38.2878 -14.5161 23.5696
RightForeArm  -61.9428 53.5966 18.2588
RightHand  -3.93871 11.1648 -27.4403
LeftUpLeg  -24.1774 7.65498 -0.931988
LeftLeg  63.9635 5.91346 13.6566
LeftFoot  2.21953 -0.342507 2.75042
LeftToes  4.18335e-011 -7.14095e-012 4.81992e-012
83
root  5.66995 41.0892 13.07 -168.822 -67.5782 168.144
RightUpLeg  -1.35444 -12.1704 -1.93476
RightLeg  15.4341 9.40375 6.54383
RightFoot  -7.04158 -0.331586 7.97595
RightToes  -1.16417e-010 0 -3.6325e-017
Spine  6.91856 0.865995 -1.19984
Spine1  1.87869 0.866341 1.05496
HEad  -9.33576 -26.3687 16.4121
LeftShoulder1  6.56746 -9.97891 -42.2932
LeftArm  -0.442402 33.2489 -27.4995
LeftForeArm  33.2229 -19.3237 -3.87155
LeftHand  -0.244104 0.0205437 5.32207
RightShoulder  3.71666 5.56009 35.0318
RightArm  -38.8963 -14.1157 22.9365
RightForeArm  -60.6283 51.6855 17.09
RightHand  -3.84295 11.0885 -26.9212
LeftUpLeg  -26.8991 7.67938 -2.0461
LeftLeg  55.0979 6.18445 10.0141
LeftFoot  0.290175 -0.209794 2.02532
LeftToes  4.18335e-011 -7.14095e-012 4.81992e-012
84
root  4.47814 41.6084 12.8891 -170.619 -62.6363 170.748
RightUpLeg  1.29393 -11.7379 -4.27963
RightLeg  13.2193 4.13585 4.73638
RightFoot  -6.4353 -0.593529 12.9309
RightToes  -1.16417e-010 0 -3.6325e-017
Spine  7.20073 1.97759 0.290448
Spine1  1.85376 2.51028 -1.85753
HEad  -8.97869 -26.0577 15.1828
LeftShoulder1  6.26798 -9.6325 -41.3582
LeftArm  -4.74632 40.3031 -29.8916
LeftForeArm  30.6696 -20.1871 -3.55922
LeftHand  -0.244104 0.0205437 5.32207
RightShoulder  3.7529 5.64612 35.0448
RightArm  -39.4317 -12.9653 22.3123
RightForeArm  -58.5307 51.0638 16.7203
RightHand  -4.17867 12.1357 -27.487
LeftUpLeg  -27.9387 9.8141 -2.34967
LeftLeg  44.8356 4.21323 4.92605
LeftFoot  -0.455597 0.0153131 -0.117009
LeftToes  4.18335e-011 -7.14095e-012 4.81992e-012
85
root  3.28314 41.7272 12.7105 -172.072 -58.0159 172.238
RightUpLeg  3.64514 -13.1611 -7.086
RightLeg  13.3193 -3.74229 2.68413
RightFoot  -5.02356 -0.548304 9.34555
RightToes  -1.16417e-010 0 -3.6325e-017
Spine  8.16272 2.69757 2.07887
Spine1  2.12854 3.94485 -5.11644
HEad  -9.30516 -25.1818 14.4808
LeftShoulder1  5.81518 -9.14081 -39.7334
LeftArm  -8.22101 46.3435 -32.7233
LeftForeArm  28.9711 -21.7695 -3.40817
LeftHand  -0.244104 0.0205437 5.32207
RightShoulder  3.84484 5.97132 34.6159
RightArm  -39.5669 -11.9177 22.2235
RightForeArm  -56.4141 51.938 17.204
RightHand  -4.5049 12.9541 -28.2783
LeftUpLeg  -27.7677 12.5139 -2.87705
LeftLeg  34.2422 1.79153 1.62146
LeftFoot  -0.46549 0.174566 -1.80332
LeftToes  4.18335e-011 -7.14095e-012 4.81992e-012
